# xmcd
#
# Track frame offsets:
#	150
#	16923
#	29421
#	46194
#	62217
#	76290
#	92013
#	106461
#
# Disc length: 1776 seconds
#
# Revision: 1
# Processed by: cddbd v1.5.2PL0 Copyright (c) Steve Scherf et al.
# Submitted via: audiograbber 1.83.01
#
DISCID=5b06ee08
DTITLE=Earl Foss' Brown Derby - This Drinkin' Life
DYEAR=2006
DGENRE=Country
TTITLE0=Silver Eagle
TTITLE1=Bad News
TTITLE2=Barstool
TTITLE3=Moving On
TTITLE4=Always and Forever
TTITLE5=All That's Left
TTITLE6=Say What You Mean
TTITLE7=This Drinkin' Life
EXTD=
EXTT0=
EXTT1=
EXTT2=
EXTT3=
EXTT4=
EXTT5=
EXTT6=
EXTT7=
PLAYORDER=
